/* XPM */
static char * favicon_xpm[] = {
"16 16 4 1",
" 	c black",
".	c white",
"X	c blue",
"o	c red",
"   ...  ..   ...",
" .. . .. . .. ..",
" .. . .... .. ..",
" .. . .... .. ..",
"   .. ....   ...",
" .... .... .. ..",
" .... .... .. ..",
" .... .. . .. ..",
" .....  ..   ...",
"................",
"..XX............",
".XooXoooooo.....",
".XooXooooooo....",
"..XX......ooo...",
"...........ooo..",
"............oo.."};
